<svg width="203" height="46" viewBox="0 0 203 46" fill="none" xmlns="http://www.w3.org/2000/svg">
<path d="M38.104 44.104L26.4 32.4C25.8027 31.8027 25.504 31.1493 25.504 30.44C25.504 29.6933 25.8027 29.0213 26.4 28.424C26.9973 27.8267 27.6507 27.528 28.36 27.528C29.1067 27.528 29.7787 27.8267 30.376 28.424L42.08 40.184C42.64 40.7813 42.92 41.4347 42.92 42.144C42.9573 42.8533 42.6773 43.5067 42.08 44.104C41.4827 44.7013 40.8107 45 40.064 45C39.3547 45 38.7013 44.7013 38.104 44.104ZM22.816 45.56C19.5307 45.56 16.5253 45.0187 13.8 43.936C11.0747 42.816 8.72267 41.2667 6.744 39.288C4.80267 37.272 3.29067 34.9013 2.208 32.176C1.12533 29.4133 0.584 26.3893 0.584 23.104C0.584 19.8187 1.12533 16.8133 2.208 14.088C3.29067 11.3627 4.80267 9.01067 6.744 7.032C8.72267 5.016 11.0747 3.46666 13.8 2.384C16.5253 1.264 19.5307 0.704 22.816 0.704C26.1013 0.704 29.088 1.264 31.776 2.384C34.5013 3.46666 36.8533 5.016 38.832 7.032C40.8107 9.01067 42.3413 11.3627 43.424 14.088C44.5067 16.8133 45.048 19.8187 45.048 23.104C45.048 26.3893 44.5067 29.4133 43.424 32.176C42.3413 34.9013 40.8107 37.272 38.832 39.288C36.8533 41.2667 34.5013 42.816 31.776 43.936C29.088 45.0187 26.1013 45.56 22.816 45.56ZM22.816 40.296C25.2427 40.296 27.464 39.8667 29.48 39.008C31.5333 38.112 33.3067 36.8987 34.8 35.368C36.2933 33.8 37.432 31.9707 38.216 29.88C39.0373 27.7893 39.448 25.5307 39.448 23.104C39.448 20.6773 39.0373 18.4187 38.216 16.328C37.432 14.2373 36.2933 12.4267 34.8 10.896C33.3067 9.328 31.5333 8.11467 29.48 7.256C27.464 6.39733 25.2427 5.968 22.816 5.968C20.3893 5.968 18.1493 6.39733 16.096 7.256C14.08 8.11467 12.3253 9.328 10.832 10.896C9.376 12.4267 8.23733 14.2373 7.416 16.328C6.59467 18.4187 6.184 20.6773 6.184 23.104C6.184 25.5307 6.59467 27.7893 7.416 29.88C8.23733 31.9707 9.376 33.8 10.832 35.368C12.3253 36.8987 14.08 38.112 16.096 39.008C18.1493 39.8667 20.3893 40.296 22.816 40.296ZM72.4823 45.896C68.8983 45.896 65.725 45.2427 62.9623 43.936C60.1996 42.592 58.0343 40.744 56.4663 38.392C54.9356 36.04 54.1703 33.352 54.1703 30.328V4.176C54.1703 3.31733 54.4503 2.62666 55.0103 2.104C55.5703 1.544 56.261 1.264 57.0823 1.264C57.941 1.264 58.6316 1.544 59.1543 2.104C59.7143 2.62666 59.9943 3.31733 59.9943 4.176V30.328C59.9943 32.344 60.517 34.136 61.5623 35.704C62.645 37.2347 64.1196 38.448 65.9863 39.344C67.8903 40.2027 70.0556 40.632 72.4823 40.632C74.8343 40.632 76.9063 40.2027 78.6983 39.344C80.5276 38.448 81.9463 37.2347 82.9543 35.704C83.9996 34.136 84.5223 32.344 84.5223 30.328V4.176C84.5223 3.31733 84.8023 2.62666 85.3623 2.104C85.9223 1.544 86.613 1.264 87.4343 1.264C88.293 1.264 88.9836 1.544 89.5063 2.104C90.029 2.62666 90.2903 3.31733 90.2903 4.176V30.328C90.2903 33.352 89.525 36.04 87.9943 38.392C86.501 40.744 84.4103 42.592 81.7223 43.936C79.0343 45.2427 75.9543 45.896 72.4823 45.896ZM104.387 45C103.566 45 102.875 44.72 102.315 44.16C101.755 43.6 101.475 42.9093 101.475 42.088V4.176C101.475 3.31733 101.755 2.62666 102.315 2.104C102.875 1.544 103.566 1.264 104.387 1.264C105.246 1.264 105.936 1.544 106.459 2.104C107.019 2.62666 107.299 3.31733 107.299 4.176V42.088C107.299 42.9093 107.019 43.6 106.459 44.16C105.936 44.72 105.246 45 104.387 45ZM118.819 45C117.96 45 117.269 44.72 116.747 44.16C116.261 43.6 115.981 42.9653 115.907 42.256C115.869 41.5093 116.075 40.856 116.523 40.296L143.907 6.416H119.379C118.445 6.416 117.736 6.192 117.251 5.744C116.803 5.25866 116.597 4.66133 116.635 3.952C116.597 3.168 116.859 2.53333 117.419 2.048C117.979 1.52533 118.669 1.264 119.491 1.264H148.387C149.245 1.264 149.936 1.52533 150.459 2.048C150.981 2.57067 151.28 3.20533 151.355 3.952C151.429 4.66133 151.224 5.296 150.739 5.856L123.243 39.848H148.387C149.245 39.848 149.936 40.1093 150.459 40.632C150.981 41.1173 151.243 41.696 151.243 42.368C151.243 43.1893 150.981 43.8427 150.459 44.328C149.936 44.776 149.245 45 148.387 45H118.819ZM180.261 45.56C176.976 45.56 173.971 45.0187 171.245 43.936C168.52 42.816 166.168 41.2667 164.189 39.288C162.248 37.272 160.736 34.9013 159.653 32.176C158.571 29.4133 158.029 26.3893 158.029 23.104C158.029 19.8187 158.571 16.8133 159.653 14.088C160.736 11.3627 162.248 9.01067 164.189 7.032C166.168 5.016 168.52 3.46666 171.245 2.384C173.971 1.264 176.976 0.704 180.261 0.704C183.547 0.704 186.533 1.264 189.221 2.384C191.947 3.46666 194.299 5.016 196.277 7.032C198.256 9.01067 199.787 11.3627 200.869 14.088C201.952 16.8133 202.493 19.8187 202.493 23.104C202.493 26.3893 201.952 29.4133 200.869 32.176C199.787 34.9013 198.256 37.272 196.277 39.288C194.299 41.2667 191.947 42.816 189.221 43.936C186.533 45.0187 183.547 45.56 180.261 45.56ZM180.261 40.296C182.688 40.296 184.909 39.8667 186.925 39.008C188.979 38.112 190.752 36.8987 192.245 35.368C193.739 33.8 194.877 31.9707 195.661 29.88C196.483 27.7893 196.893 25.5307 196.893 23.104C196.893 20.6773 196.483 18.4187 195.661 16.328C194.877 14.2373 193.739 12.4267 192.245 10.896C190.752 9.328 188.979 8.11467 186.925 7.256C184.909 6.39733 182.688 5.968 180.261 5.968C177.835 5.968 175.595 6.39733 173.541 7.256C171.525 8.11467 169.771 9.328 168.277 10.896C166.821 12.4267 165.683 14.2373 164.861 16.328C164.04 18.4187 163.629 20.6773 163.629 23.104C163.629 25.5307 164.04 27.7893 164.861 29.88C165.683 31.9707 166.821 33.8 168.277 35.368C169.771 36.8987 171.525 38.112 173.541 39.008C175.595 39.8667 177.835 40.296 180.261 40.296Z" fill="white"/>
</svg>
